<?xml version="1.0" encoding="utf-8"?>
<!-- Generator: Adobe Illustrator 27.3.1, SVG Export Plug-In . SVG Version: 6.00 Build 0)  -->
<svg version="1.1" id="Layer_1" xmlns="http://www.w3.org/2000/svg" xmlns:xlink="http://www.w3.org/1999/xlink" x="0px" y="0px"
	 viewBox="0 0 130 30" style="enable-background:new 0 0 130 30;" xml:space="preserve">
<style type="text/css">
	.st0{fill-rule:evenodd;clip-rule:evenodd;fill:#FFFFFF;}
	.st1{fill-rule:evenodd;clip-rule:evenodd;fill:#601DC0;}
	.st2{fill:#601DC0;}
</style>
<path class="st0" d="M1.4,30C0.6,30,0,29.4,0,28.7V1.3C0,0.6,0.6,0,1.4,0h48.3c3.7,0,6.6,2.9,6.6,6.4v22.3c0,0.7-0.6,1.3-1.3,1.3
	H1.4z"/>
<path class="st1" d="M41.4,6.6v2.6h-3v14.2h-2.7V9.2h-3V6.6H41.4z"/>
<path class="st1" d="M45.3,16.6h2.9l-1.4-6.9L45.3,16.6z M49.5,23.4l-1-4.2H45l-1,4.2h-2.7l3.7-16.8h3.4l3.7,16.8H49.5z"/>
<path class="st2" d="M20.6,6.6h9.6v2.5h-5.5l3.1,5.9l-3.2,6l5.5,0l0,2.5l-9.6-0.1l4.5-8.5L20.6,6.6z"/>
<path class="st2" d="M11.6,14.2l4.1-7.5l2.5,0l0,16.7l-2.5,0l0-11.5l-4.1,7l-4.1-7v11.5H5V6.6h2.5L11.6,14.2z"/>
<path class="st0" d="M60,6.5h3.9c0.7,0,1.3,0.1,1.9,0.2s1.1,0.4,1.7,0.7c0.5,0.3,0.9,0.8,1.3,1.4c0.3,0.6,0.5,1.4,0.5,2.2V12
	c0,1.8-0.8,3.1-2.4,3.8l2.7,7.7h-2.8l-2.2-6.9h-1.8v6.9H60V6.5z M66.6,11.7v-0.2c0-0.9-0.2-1.5-0.6-1.8c-0.4-0.4-1-0.5-1.6-0.5h-1.6
	v5h1.6c0.6,0,1.2-0.2,1.6-0.5C66.4,13.1,66.6,12.5,66.6,11.7z M78.8,23.6l-1-4.2h-3.5l-1,4.2h-2.7l3.7-17.1h3.4l3.7,17.1H78.8z
	 M74.7,16.6h2.9l-1.4-7L74.7,16.6z M89.9,6.5v2.6h-3v14.4h-2.7V9.1h-3V6.5H89.9z M91.8,23.6V6.5h2.7v17.1H91.8z M104,6.5h2.6v17.1
	H104l-4.8-10.9v10.9h-2.6V6.5h2.6l4.8,10.9V6.5z M108.7,17.8v-5.7c0-1.1,0.1-2,0.4-2.8c0.3-0.8,0.6-1.4,1.1-1.8c0.5-0.4,1-0.7,1.5-1
	c0.5-0.2,1.1-0.3,1.8-0.3c0.6,0,1.2,0.1,1.7,0.3c0.5,0.2,1,0.5,1.5,0.9c0.5,0.4,0.8,1,1.1,1.8c0.3,0.8,0.4,1.7,0.4,2.8v0.2h-2.6
	v-0.2c0-1.1-0.2-1.9-0.6-2.5c-0.4-0.5-0.9-0.8-1.6-0.8c-1.4,0-2.2,1.1-2.2,3.4v5.3c0,2.3,0.7,3.5,2.2,3.5c0.7,0,1.2-0.3,1.6-0.8
	c0.4-0.5,0.6-1.4,0.6-2.6v-1.1h-2.1V14h4.7v3.8c0,1.1-0.1,2-0.4,2.8c-0.3,0.8-0.6,1.4-1.1,1.8s-1,0.7-1.5,0.9
	c-0.5,0.2-1.1,0.3-1.7,0.3c-0.6,0-1.2-0.1-1.8-0.3c-0.5-0.2-1.1-0.5-1.5-1s-0.8-1-1.1-1.8C108.8,19.9,108.7,18.9,108.7,17.8z
	 M120.2,18.3h2.6c0,1,0.2,1.7,0.7,2.1c0.4,0.5,1,0.7,1.6,0.7c0.7,0,1.3-0.2,1.7-0.6c0.4-0.4,0.6-1,0.6-1.8c0-0.8-0.2-1.4-0.7-1.8
	c-0.4-0.4-1.2-0.7-2.2-0.9c-0.4-0.1-0.7-0.2-1-0.3c-0.3-0.1-0.6-0.3-1-0.5c-0.4-0.2-0.7-0.5-1-0.8c-0.3-0.3-0.5-0.7-0.7-1.3
	c-0.2-0.5-0.3-1.1-0.3-1.8c0-0.9,0.1-1.7,0.4-2.4c0.3-0.7,0.6-1.2,1.1-1.6c0.5-0.4,0.9-0.7,1.5-0.8c0.5-0.2,1.1-0.3,1.7-0.3
	c0.6,0,1.2,0.1,1.7,0.3c0.5,0.2,1,0.5,1.5,0.9c0.5,0.4,0.8,1,1.1,1.7c0.3,0.7,0.4,1.6,0.4,2.6h-2.6c0-0.9-0.2-1.7-0.6-2.1
	c-0.4-0.5-0.9-0.7-1.5-0.7c-0.6,0-1.1,0.2-1.4,0.6c-0.4,0.4-0.5,1-0.5,1.7c0,0.3,0.1,0.6,0.2,0.9c0.1,0.3,0.2,0.5,0.4,0.6
	c0.1,0.1,0.3,0.3,0.6,0.4s0.5,0.2,0.6,0.2c0.2,0,0.4,0.1,0.6,0.2c0.1,0,0.1,0,0.2,0c2.8,0.6,4.2,2.3,4.2,5c0,1-0.1,1.8-0.4,2.5
	s-0.6,1.3-1.1,1.7c-0.5,0.4-1,0.7-1.6,0.9c-0.6,0.2-1.2,0.3-1.9,0.3c-0.6,0-1.2-0.1-1.8-0.3c-0.6-0.2-1.1-0.5-1.5-0.9
	c-0.5-0.4-0.9-1-1.1-1.7C120.3,20.1,120.2,19.3,120.2,18.3z"/>
</svg>
